<svg width="30" height="30" viewBox="0 0 30 30" fill="none" xmlns="http://www.w3.org/2000/svg">
<path d="M18.3823 14.7688C18.0217 14.5276 17.5795 14.3198 17.0683 14.1513C16.5633 13.9851 15.9923 13.8313 15.3708 13.6945C14.8795 13.5773 14.5214 13.487 14.3083 13.4267C14.0998 13.367 13.892 13.2845 13.6902 13.1795C13.4955 13.0795 13.3414 12.9592 13.2323 12.822C13.1292 12.6923 13.0792 12.542 13.0792 12.362C13.0792 12.0685 13.2348 11.8207 13.5552 11.6045C13.8873 11.3801 14.3352 11.2667 14.8855 11.2667C15.4783 11.2667 15.9095 11.3692 16.1677 11.5713C16.4333 11.7792 16.6652 12.0738 16.8567 12.4488C17.0217 12.742 17.1711 12.9457 17.3148 13.0763C17.4695 13.2167 17.6923 13.2888 17.9767 13.2888C18.2892 13.2888 18.5548 13.1748 18.7652 12.9498C18.9742 12.726 19.0802 12.4698 19.0802 12.1873C19.0802 11.8942 18.9992 11.5904 18.8402 11.2857C18.682 10.9845 18.4311 10.6938 18.0933 10.4226C17.7583 10.1529 17.3314 9.93385 16.8252 9.77166C16.322 9.61072 15.7186 9.52916 15.0333 9.52916C14.1755 9.52916 13.4173 9.65229 12.7798 9.89447C12.1342 10.1401 11.633 10.4985 11.2895 10.9592C10.9433 11.4232 10.768 11.9613 10.768 12.5582C10.768 13.1842 10.9352 13.7173 11.2648 14.141C11.5898 14.5595 12.0336 14.8938 12.5842 15.1348C13.1227 15.3701 13.7995 15.5788 14.5967 15.7545C15.1827 15.8804 15.6567 16.001 16.0058 16.1132C16.3398 16.2207 16.6161 16.377 16.8252 16.5779C17.0245 16.7704 17.1217 17.0151 17.1217 17.3273C17.1217 17.722 16.9355 18.0442 16.5533 18.3129C16.1617 18.5879 15.6414 18.7276 15.0067 18.7276C14.5448 18.7276 14.1698 18.6585 13.8914 18.5232C13.6148 18.3882 13.398 18.2163 13.2473 18.011C13.0908 17.7973 12.942 17.527 12.8061 17.206C12.6842 16.912 12.533 16.6835 12.3561 16.5295C12.1711 16.3685 11.9433 16.2873 11.6798 16.2873C11.3583 16.2873 11.0886 16.3904 10.8783 16.5938C10.6658 16.7995 10.558 17.0504 10.558 17.3398C10.558 17.8029 10.7233 18.2835 11.0495 18.7673C11.3727 19.2467 11.798 19.6351 12.3139 19.9217C13.0358 20.3157 13.9605 20.5151 15.0633 20.5151C15.9817 20.5151 16.7892 20.3688 17.463 20.081C18.143 19.7901 18.6677 19.3804 19.023 18.8635C19.3795 18.3438 19.5605 17.7507 19.5605 17.1001C19.5605 16.5557 19.4555 16.0876 19.248 15.7085C19.0414 15.3317 18.7502 15.0151 18.3823 14.7688ZM18.5958 23.4001C17.8339 23.4001 17.1173 23.2026 16.4908 22.8563C16.0352 22.9432 15.5652 22.9892 15.0845 22.9892C10.8439 22.9892 7.40578 19.4517 7.40578 15.0882C7.40578 14.5438 7.45953 14.0126 7.56141 13.4995C7.17297 12.8192 6.94922 12.0276 6.94922 11.182C6.94922 8.65166 8.94297 6.6001 11.4023 6.6001C12.2736 6.6001 13.0852 6.85822 13.7717 7.30322C14.1986 7.2276 14.6373 7.1876 15.0845 7.1876C19.3258 7.1876 22.7636 10.7251 22.7636 15.0882C22.7636 15.6701 22.7017 16.2373 22.5861 16.7835C22.882 17.3967 23.0489 18.0876 23.0489 18.8188C23.0486 21.3482 21.0552 23.4001 18.5958 23.4001Z" fill="#222222"/>
</svg>
