<svg width="123" height="30" viewBox="0 0 123 30" fill="none" xmlns="http://www.w3.org/2000/svg">
<g clip-path="url(#clip0_168_2333)">
<g opacity="0.3">
<path d="M8.1395 6.94145C8.378 7.19651 8.378 7.61045 8.1395 7.8654L2.0842 14.3465H29.3895C29.7266 14.3465 30 14.6391 30 14.9999C30 15.3607 29.7266 15.6534 29.3895 15.6534H2.0843L8.1397 22.1346C8.378 22.3896 8.3781 22.8035 8.1396 23.0586C7.9012 23.3138 7.5146 23.3138 7.2762 23.0585L0.178801 15.4619C0.0596008 15.3344 0 15.1671 0 14.9999C0 14.8328 0.0595989 14.6655 0.1789 14.538L7.2763 6.94145C7.5146 6.68618 7.9012 6.68618 8.1395 6.94145Z" fill="#222222"/>
</g>
<path opacity="0.3" d="M51.496 20.008V21H46.072V20.008H48.344V13.16C48.2267 13.32 48.0133 13.5013 47.704 13.704C47.3947 13.9067 47.0587 14.0827 46.696 14.232C46.3333 14.3707 46.0133 14.44 45.736 14.44V13.384C45.9813 13.384 46.248 13.3147 46.536 13.176C46.8347 13.0373 47.112 12.8773 47.368 12.696C47.6347 12.504 47.8587 12.328 48.04 12.168C48.2213 12.008 48.3227 11.9067 48.344 11.864H49.464V20.008H51.496ZM65.1379 9.64L57.5859 21H56.3539L63.9059 9.64H65.1379ZM70.3603 21C70.3603 20.52 70.4189 20.0347 70.5363 19.544C70.6643 19.0427 70.9149 18.5627 71.2883 18.104C71.6723 17.6347 72.2483 17.2027 73.0163 16.808C73.3256 16.648 73.6456 16.4933 73.9763 16.344C74.3069 16.184 74.6163 16.0133 74.9043 15.832C75.1923 15.64 75.4269 15.4267 75.6083 15.192C75.7896 14.9467 75.8803 14.6587 75.8803 14.328C75.8803 14.0613 75.8003 13.8053 75.6403 13.56C75.4803 13.304 75.2456 13.096 74.9363 12.936C74.6269 12.7653 74.2376 12.68 73.7682 12.68C73.3203 12.68 72.9203 12.76 72.5683 12.92C72.2269 13.08 71.9389 13.2667 71.7043 13.48C71.4803 13.6827 71.3096 13.848 71.1923 13.976L70.5043 13.224C70.5683 13.16 70.6909 13.048 70.8723 12.888C71.0536 12.7173 71.2883 12.5413 71.5763 12.36C71.8749 12.1787 72.2216 12.024 72.6163 11.896C73.0109 11.768 73.4536 11.704 73.9443 11.704C74.5949 11.704 75.1496 11.8213 75.6083 12.056C76.0776 12.2907 76.4349 12.6 76.6803 12.984C76.9256 13.3573 77.0483 13.768 77.0483 14.216C77.0483 14.6533 76.9523 15.032 76.7603 15.352C76.5789 15.6613 76.3389 15.9333 76.0403 16.168C75.7523 16.392 75.4483 16.5893 75.1283 16.76C74.8189 16.92 74.5363 17.0587 74.2803 17.176C73.6083 17.496 73.0803 17.816 72.6963 18.136C72.3123 18.4453 72.0296 18.7547 71.8483 19.064C71.6776 19.3733 71.5603 19.688 71.4963 20.008H77.2243V21H70.3603Z" fill="#222222"/>
<g opacity="0.3">
<path d="M114.861 6.94145C114.622 7.19651 114.622 7.61045 114.861 7.8654L120.916 14.3465H93.6105C93.2734 14.3465 93 14.6391 93 14.9999C93 15.3607 93.2734 15.6534 93.6105 15.6534H120.916L114.86 22.1346C114.622 22.3896 114.622 22.8035 114.86 23.0586C115.099 23.3138 115.485 23.3138 115.724 23.0585L122.821 15.4619C122.94 15.3344 123 15.1671 123 14.9999C123 14.8328 122.94 14.6655 122.821 14.538L115.724 6.94145C115.485 6.68618 115.099 6.68618 114.861 6.94145Z" fill="#222222"/>
</g>
</g>
<defs>
<clipPath id="clip0_168_2333">
<rect width="123" height="30" fill="white"/>
</clipPath>
</defs>
</svg>
