<svg width="40" height="40" viewBox="0 0 40 40" fill="none" xmlns="http://www.w3.org/2000/svg">
<path fill-rule="evenodd" clip-rule="evenodd" d="M21.5135 0.989111L26.7794 12.1573L38.5553 13.9452C39.191 14.0438 39.7184 14.5112 39.9172 15.1512C40.115 15.7912 39.9501 16.4934 39.4905 16.9647L30.9649 25.6586L32.9805 37.9382C33.086 38.6009 32.8251 39.2695 32.3061 39.6649C32.017 39.8839 31.6685 40.0012 31.3125 39.9983C31.0393 40.0022 30.7709 39.9322 30.5308 39.7961L19.9991 33.9995L9.46735 39.7961C8.89942 40.1097 8.21093 40.0584 7.69103 39.664C7.17114 39.2695 6.91025 38.6009 7.01762 37.9382L9.03316 25.6586L0.50759 16.9647C0.0489121 16.4934 -0.115911 15.7912 0.0818764 15.1512C0.280606 14.5112 0.80804 14.0438 1.44378 13.9452L13.2197 12.1573L18.4855 0.989111C18.7681 0.383614 19.3558 0 19.9991 0C20.6433 0 21.231 0.383614 21.5135 0.989111Z" fill="#222222"/>
</svg>
